<svg version="1.2" xmlns="http://www.w3.org/2000/svg" viewBox="0 0 141 141" width="141" height="141"><style>.a{fill:#fff}.b{fill:#09070a}.c{fill:#cc6323}.d{fill:#0a080b}</style><path class="a" d="m149.2 104.4l14.8-77.3 24.6 55.8 24.8-55.8 13.3 77.3h-11l-7.2-43.3-20.6 46.6-20.3-46.7-7.4 43.4h-11z"/><path class="a" d="m244.8 33.5q1.3 0 2.6 0.5 1.2 0.5 2.2 1.5 0.9 0.9 1.4 2.2 0.5 1.2 0.5 2.6c0 1.8-0.7 3.5-2 4.7-1.2 1.3-2.9 2-4.7 2-1.8 0-3.5-0.7-4.7-2-1.3-1.2-2-2.9-2-4.7q0-1.4 0.5-2.6 0.5-1.3 1.4-2.2 1-1 2.2-1.5 1.3-0.5 2.6-0.5zm5.2 70.9h-10.4v-45.4h10.4z"/><path class="a" d="m263.1 25.9h10.4v78.5h-10.4z"/><path fill-rule="evenodd" class="a" d="m326.5 94q-0.6 1.2-1.5 2.4-0.8 1.1-1.7 2.2-1 1-2.1 2-1 0.9-2.2 1.7c-3.6 2.4-8.4 3.4-13.1 3.4-5.9 0-10.8-1.5-15-5.8q-1.6-1.7-2.9-3.8-1.2-2-2.1-4.2-0.8-2.2-1.2-4.6-0.4-2.3-0.4-4.7 0-2.6 0.4-5.1 0.5-2.5 1.4-4.9 0.9-2.4 2.2-4.5 1.4-2.2 3.1-4.1 1.4-1.5 3.2-2.7 1.7-1.1 3.6-1.9 1.9-0.8 4-1.2 2-0.4 4.1-0.3 2-0.1 4 0.3 1.9 0.3 3.8 1.1 1.8 0.8 3.5 1.9 1.6 1.1 3 2.6c5.7 6 6.3 14.4 6.3 19.2v1.2h-32q0 1.3 0.3 2.5 0.3 1.3 0.8 2.4 0.5 1.2 1.1 2.3 0.7 1 1.6 2 0.7 0.7 1.7 1.3 0.9 0.6 1.9 1 1 0.4 2.1 0.5 1.1 0.2 2.2 0.1 1 0 1.9-0.1 1-0.1 1.9-0.4 0.9-0.3 1.7-0.8 0.9-0.4 1.6-1 0.7-0.5 1.2-1.1 0.6-0.6 1.1-1.2 0.6-0.6 1-1.3 0.5-0.7 0.9-1.4zm-10.3-18.4q-0.2-0.9-0.4-1.7-0.3-0.8-0.7-1.6-0.4-0.8-0.9-1.5-0.6-0.7-1.2-1.3c-1-0.9-2.1-1.6-3.4-2-1.2-0.4-2.5-0.6-3.8-0.6-1.3 0-2.6 0.3-3.8 0.8-1.2 0.5-2.3 1.2-3.3 2.1q-0.6 0.6-1.1 1.3-0.5 0.6-0.9 1.4-0.4 0.7-0.7 1.5-0.3 0.8-0.5 1.6z"/><path class="a" d="m337.5 59h10.4v4.2q1.1-1.3 2.5-2.3 1.4-1.1 2.9-1.8 1.6-0.7 3.3-1 1.7-0.3 3.4-0.3c8.3 0 11.8 4.2 13.1 6.2 1.7 2.5 2.8 5.6 2.8 12.6v27.8h-10.4v-25.2c0-11.6-4.2-11.9-8.2-11.9-4.6 0-9.4 0.7-9.4 15.3v21.7h-10.4z"/><path class="a" d="m394.2 33.5q1.3 0 2.6 0.5 1.2 0.5 2.2 1.5 0.9 0.9 1.4 2.2 0.5 1.2 0.5 2.6c0 1.8-0.7 3.6-1.9 4.9-1.3 1.3-3 2-4.8 2-1.8 0-3.6-0.7-4.8-2-1.3-1.3-2-3.1-1.9-4.9q0-1.4 0.5-2.6 0.5-1.3 1.4-2.2 0.9-1 2.2-1.5 1.2-0.5 2.6-0.5zm5.2 70.9h-10.4v-45.4h10.4z"/><path class="a" d="m422.9 59v26c0 2.7 0.1 5.8 1.9 8.2 0.8 1 1.9 1.7 3 2.3 1.2 0.5 2.5 0.8 3.8 0.8 1.2 0 2.5-0.3 3.7-0.8 1.2-0.6 2.2-1.3 3-2.3 1.8-2.4 1.9-5.5 1.9-8.2v-26h10.4v26.3c0 5.8-0.6 10.7-4.7 14.9q-1.5 1.3-3.2 2.4-1.7 1.1-3.5 1.8-1.9 0.7-3.9 1.1-2 0.3-4 0.3-1.9 0-3.8-0.3-2-0.4-3.8-1.1-1.8-0.7-3.4-1.8-1.7-1.1-3-2.4c-4.2-4.2-4.8-9-4.8-14.9v-26.3z"/><path class="a" d="m463.7 59h10.4v4.2q1-1.3 2.2-2.3 1.3-1 2.7-1.7 1.4-0.7 3-1 1.5-0.4 3.1-0.4 1.8 0 3.5 0.4 1.7 0.5 3.2 1.4 1.5 0.9 2.8 2.1 1.2 1.3 2.1 2.8 1.1-1.6 2.5-2.9 1.5-1.2 3.2-2.1 1.8-0.9 3.7-1.3 1.9-0.4 3.8-0.4 1.9 0 3.8 0.4 1.9 0.5 3.5 1.5 1.7 0.9 3.1 2.3 1.3 1.3 2.3 3c0.9 1.5 2.3 4.8 2.3 11.4v28h-10.3v-25c0-5.1-0.6-7.1-1-8.1q-0.3-0.9-0.9-1.6-0.6-0.8-1.4-1.4-0.8-0.5-1.7-0.8-1-0.2-1.9-0.2-0.9 0.1-1.8 0.3-0.9 0.2-1.7 0.7-0.8 0.4-1.5 1-0.7 0.6-1.2 1.4c-1.8 2.6-2 6.4-2 10.3v23.4h-10.4v-25c0-5.1-0.5-7.1-0.9-8.1q-0.3-0.9-0.9-1.7-0.6-0.8-1.4-1.3-0.8-0.5-1.7-0.8-1-0.3-1.9-0.2-0.9 0-1.8 0.3-0.9 0.2-1.7 0.6-0.8 0.5-1.5 1.1-0.7 0.6-1.2 1.3c-1.8 2.6-2 6.5-2 10.4v23.3h-10.4z"/><path class="b" d="m141.1 70.6c0.1-28.5-17.1-54.2-43.4-65.2-26.3-11-56.7-5-76.9 15.1-20.2 20.1-26.3 50.4-15.5 76.8 10.8 26.4 36.4 43.7 64.9 43.8 9.3 0 18.5-1.8 27.1-5.3 8.6-3.5 16.4-8.7 23-15.2 6.6-6.6 11.8-14.4 15.4-22.9 3.6-8.6 5.4-17.8 5.4-27.1z"/><path fill-rule="evenodd" class="c" d="m141.1 70.6c0 28.6-17.3 54.4-43.8 65.2-26.4 10.9-56.8 4.7-76.9-15.7-20.1-20.3-26-50.8-14.8-77.1 11.2-26.3 37.2-43.3 65.8-43 9.2 0.1 18.3 2 26.7 5.6 8.5 3.6 16.2 8.8 22.7 15.3 6.4 6.6 11.6 14.3 15.1 22.9 3.5 8.5 5.2 17.6 5.2 26.8zm-70.5-61.4c-24.8 0-47.2 15-56.7 37.9-9.5 22.9-4.2 49.3 13.3 66.8 17.5 17.5 43.9 22.8 66.8 13.3 22.9-9.5 37.9-31.8 37.9-56.6 0-8.1-1.6-16-4.7-23.5-3.1-7.4-7.6-14.2-13.3-19.9-5.7-5.7-12.4-10.2-19.9-13.3-7.4-3.1-15.4-4.7-23.4-4.7z"/><path fill-rule="evenodd" class="d" d="m70.6 9.2c24.8 0 47.1 15 56.6 37.9 9.5 22.9 4.3 49.3-13.3 66.8-17.5 17.6-43.9 22.8-66.8 13.3-22.9-9.5-37.9-31.9-37.9-56.7 0-8 1.6-16 4.7-23.4 3.1-7.5 7.6-14.2 13.3-19.9 5.7-5.7 12.5-10.2 19.9-13.3 7.4-3.1 15.4-4.7 23.5-4.7zm52.2 61.3c0-21.1-12.7-40.2-32.2-48.3-19.6-8-42-3.6-57 11.4-14.9 14.9-19.4 37.4-11.3 56.9 8.1 19.5 27.1 32.3 48.2 32.3 6.9 0 13.7-1.4 20-4 6.4-2.6 12.2-6.5 17-11.3 4.9-4.9 8.7-10.6 11.4-17 2.6-6.3 3.9-13.1 3.9-20z"/><path fill-rule="evenodd" class="c" d="m122.8 70.5c0.1 21.2-12.7 40.2-32.2 48.3-19.5 8.2-42 3.7-57-11.2-14.9-15-19.4-37.5-11.3-57 8.1-19.6 27.1-32.3 48.3-32.3 6.8 0 13.6 1.4 20 4 6.3 2.6 12.1 6.5 16.9 11.3 4.9 4.9 8.7 10.6 11.3 16.9 2.7 6.4 4 13.2 4 20zm-77.7-36.2q-0.1 0-0.1 0.1-0.1 0-0.1 0.1-0.1 0.1-0.1 0.1 0 0.1 0 0.2-3.7 14.4-7.3 28.8-4.1 16.2-8.3 32.4c-0.1 0.5 0 0.7 0.6 0.6q5.2 0 10.5 0c0.6 0 0.7-0.2 0.8-0.6l6.7-29.5c0.3-1.5 0.7-3.1 1.1-4.8l21.7 37.7 21.9-37.6 3.1 14.3q2.2 9.9 4.4 19.8c0.1 0.5 0.3 0.7 0.9 0.7q5.2 0 10.5 0c0.5 0 0.7-0.1 0.5-0.6q-0.9-4.1-1.8-8l-6.5-28.4c-1.8-7.7-3.5-15.4-5.3-23.1q0-0.3-0.1-0.6-0.1-0.3-0.1-0.6-0.1-0.2-0.2-0.5-0.1-0.3-0.2-0.6c-8.8 15-17.6 30-26.4 45z"/><path class="d" d="m45.1 34.3l26.1 44.8c8.9-15 17.6-29.9 26.5-44.9q0.1 0.3 0.2 0.5 0.1 0.3 0.1 0.6 0.1 0.3 0.2 0.5 0 0.3 0.1 0.6c1.8 7.7 3.5 15.4 5.3 23.2l6.5 28.3q0.9 4 1.8 8c0.1 0.6 0 0.7-0.6 0.7q-5.2 0-10.5 0c-0.5 0-0.7-0.2-0.8-0.7q-2.2-9.9-4.4-19.8l-3.1-14.3-21.9 37.6-21.7-37.7c-0.4 1.7-0.8 3.3-1.1 4.8l-6.7 29.5c-0.1 0.5-0.2 0.7-0.8 0.7q-5.3 0-10.6 0c-0.5 0-0.6-0.1-0.5-0.7q4.2-16.2 8.3-32.4 3.6-14.4 7.3-28.8 0-0.1 0-0.2 0 0 0.1-0.1 0-0.1 0.1-0.1 0-0.1 0.1-0.1z"/></svg>